HIERARCHY
ROOT pelvis
{
  OFFSET 0 100 0
  CHANNELS 6 Xposition Yposition Zposition Zrotation Xrotation Yrotation
  JOINT pelvis_right_femur
  {
    OFFSET -10.78128 -3.44521 -0.5502486
    CHANNELS 3 Zrotation Xrotation Yrotation
    JOINT right_femur_tibia
    {
      OFFSET -0.8047443 -44.0398 -0.1307829
      CHANNELS 3 Zrotation Xrotation Yrotation
      JOINT right_tibia_foot
      {
        OFFSET 3.006224 -47.83518 -5
        CHANNELS 3 Zrotation Xrotation Yrotation
        End Site
        {
          OFFSET 0 -5 15
        }
      }
    }
  }
  JOINT pelvis_left_femur
  {
    OFFSET 10.78128 -3.44521 -0.5502486
    CHANNELS 3 Zrotation Xrotation Yrotation
    JOINT left_femur_tibia
    {
      OFFSET 0.8047443 -44.0398 -0.1307829
      CHANNELS 3 Zrotation Xrotation Yrotation
      JOINT left_tibia_foot
      {
        OFFSET -4.370144 -48.10324 -4.275266
        CHANNELS 3 Zrotation Xrotation Yrotation
        End Site
        {
          OFFSET 0 -5 15
        }
      }
    }
  }
  JOINT pelvis_spine1
  {
    OFFSET 0 6.468898 -3.129235
    CHANNELS 3 Zrotation Xrotation Yrotation
    JOINT spine1
    {
      OFFSET 0 23.15396 4.99043
      CHANNELS 3 Zrotation Xrotation Yrotation
      JOINT spine2
      {
        OFFSET 0 20.79997 -5.064912
        CHANNELS 3 Zrotation Xrotation Yrotation
        JOINT neck
        {
          OFFSET 0 14.38658 9.616178
          CHANNELS 3 Zrotation Xrotation Yrotation
          End Site
          {
            OFFSET 0 20 0
          }
        }
      }
      JOINT right_manubrium
      {
        OFFSET -5.722621 16.35077 3.967754
        CHANNELS 3 Zrotation Xrotation Yrotation
        JOINT right_clavicle
        {
          OFFSET -13.16364 1.694482 -4.693211
          CHANNELS 3 Zrotation Xrotation Yrotation
          JOINT right_humerus
          {
            OFFSET -28.5034 -0.3100689 -2.792744
            CHANNELS 3 Zrotation Xrotation Yrotation
            JOINT right_radius
            {
              OFFSET -25.15693 0.02248979 -1.271978
              CHANNELS 3 Zrotation Xrotation Yrotation
              End Site
              {
                OFFSET -15 0 0
              }
            }
          }
        }
      }
      JOINT left_manubrium
      {
        OFFSET 5.722621 16.35077 3.967754
        CHANNELS 3 Zrotation Xrotation Yrotation
        JOINT left_clavicle
        {
          OFFSET 13.16364 1.694482 -4.693211
          CHANNELS 3 Zrotation Xrotation Yrotation
          JOINT left_humerus
          {
            OFFSET 29.39168 -1.063119 -2.237045
            CHANNELS 3 Zrotation Xrotation Yrotation
            JOINT left_radius
            {
              OFFSET 24.59957 -0.9528479 0.9047498
              CHANNELS 3 Zrotation Xrotation Yrotation
              End Site
              {
                OFFSET 15 -0 -0
              }
            }
          }
        }
      }
    }
  }
}
MOTION
Frames: 11
Frame Time: 0.0416666666667
1787.443 103.7916 2281.771 7.410103 -1.979056 62.03832 -0.1864762 12.73433 4.968568 -0 46.5451 -0 1.785806 -0.8068406 -3.405054 -4.043638 -14.62369 -7.867672 -0 21.40835 -0 -4.959904 -10.04049 19.26614 -2.63957 -0.3456235 7.1274 -1.691064 9.644879 -2.954912 2.371215 22.24893 6.083744 2.476828 -18.08251 8.29207 1.14901 -19.76189 10.09521 83.60395 24.54138 -7.957695 -0 0 20.86512 -26.30161 12.16671 14.13335 4.095764 -14.64347 -2.738732 -92.72534 23.35271 24.3611 0 0 -7.065641 -0.8508108 6.602746 15.10307
1793.825 104.8722 2284.003 8.318561 -2.177166 62.93487 -0.50662 7.903956 4.583645 -0 51.79207 -0 1.300717 1.849041 -4.539896 -5.077961 -9.471612 -8.750581 -0 22.64031 -0 -5.030845 -11.75073 18.65211 -2.881346 -0.007859394 6.253706 -1.663101 9.833683 -3.411924 2.41494 22.66529 6.209168 2.450591 -17.9018 8.514633 1.157981 -18.76781 9.985771 85.37651 24.12132 -9.804097 -0 0 18.93167 -25.64863 11.96165 13.41969 4.054233 -15.26983 -3.33253 -91.48191 24.26171 21.92884 0 0 -8.117623 -0.897302 6.941447 15.18997
1799.735 105.9741 2286.068 8.990777 -2.359459 63.98821 -0.5945504 2.325579 4.027112 -0 54.00967 -0 0.6157914 2.572872 -5.610923 -5.710815 -4.135064 -9.514594 -0 22.52929 -0 -5.297016 -13.70567 17.88719 -2.950372 0.4053627 5.254829 -1.480132 9.817647 -4.034993 2.367728 23.12666 6.321464 2.358637 -17.6546 8.669229 1.109057 -17.81395 9.86326 87.01525 23.8225 -11.78874 -0 0 17.05961 -24.56853 11.72178 12.55215 4.13552 -16.08798 -3.90272 -90.08358 25.56336 19.08005 0 0 -9.966819 -1.173116 7.493559 15.42595
1805.145 106.8325 2287.977 9.228755 -2.448467 65.09071 -0.4744992 -3.529977 3.431333 -0 52.93279 -0 -0.1371089 1.555169 -6.536103 -5.94429 0.9710958 -10.17684 -0 20.89488 -0 -5.671472 -15.72462 17.05301 -2.873521 0.7705941 4.258066 -1.142963 9.599276 -4.783592 2.243337 23.4967 6.422361 2.23351 -17.43264 8.754453 1.060981 -17.00042 9.740695 88.33437 23.79476 -13.77254 -0 0 15.45164 -23.18861 11.54367 11.63726 4.357451 -17.01789 -4.345847 -88.66019 27.02349 16.16692 0 0 -12.43694 -1.599537 8.162676 15.76141
1810.135 107.2607 2289.785 8.949013 -2.401227 66.16129 -0.1941863 -9.26237 2.89986 -0 48.94344 -0 -0.8305899 -0.4681712 -7.267535 -5.857375 5.524237 -10.72556 -0 18.15347 -0 -6.058759 -17.65078 16.22684 -2.711871 1.009404 3.384136 -0.6971725 9.243181 -5.582124 2.086883 23.66743 6.512128 2.127368 -17.3324 8.786229 1.055103 -16.35675 9.630362 89.28287 24.10626 -15.66926 -0 0 14.16507 -21.70839 11.49646 10.76084 4.732431 -18.00101 -4.60125 -87.31086 28.34696 13.46847 0 0 -15.26457 -1.986071 8.831603 16.04704
1814.863 107.1877 2291.573 8.212339 -2.228831 67.16039 0.193786 -14.56785 2.497594 -0 42.94371 -0 -1.373243 -2.585723 -7.787972 -5.568135 9.354777 -11.12132 -0 15.12882 -0 -6.411153 -19.35339 15.4586 -2.519692 1.105154 2.709354 -0.2162569 8.840216 -6.339088 1.960107 23.5981 6.580599 2.080661 -17.41178 8.791975 1.090603 -15.84835 9.534001 89.92885 24.67839 -17.42518 -0 0 13.14045 -20.32306 11.58972 9.964201 5.248787 -18.98432 -4.66253 -86.09856 29.28385 11.13674 0 0 -18.14378 -2.123205 9.399377 16.11084
1819.515 106.6528 2293.424 7.192359 -1.987945 68.07819 0.6535886 -19.20039 2.264778 -0 36.06122 -0 -1.72618 -4.108746 -8.11413 -5.193135 12.44595 -11.3289 -0 12.7497 -0 -6.741435 -20.70232 14.77115 -2.320074 1.082824 2.251252 0.2294589 8.468501 -6.974387 1.915874 23.32334 6.608233 2.101378 -17.66747 8.799083 1.134198 -15.40826 9.443074 90.39189 25.31895 -18.99875 -0 0 12.26323 -19.15631 11.77635 9.247877 5.857552 -19.90148 -4.564314 -85.05954 29.70661 9.207368 0 0 -20.77743 -1.882446 9.803435 15.8408
1824.275 105.7763 2295.407 6.104229 -1.752453 68.91053 1.176421 -22.91999 2.22795 -0 29.33705 -0 -1.900292 -4.779223 -8.290959 -4.818754 14.87079 -11.3448 -0 11.78456 -0 -7.089672 -21.54462 14.17522 -2.107848 0.9752971 1.981471 0.5980523 8.173824 -7.440159 1.974621 22.93003 6.577601 2.167078 -18.04108 8.821841 1.154263 -14.97461 9.349174 90.77161 25.83077 -20.35211 -0 0 11.42096 -18.24477 11.98892 8.598739 6.474888 -20.67193 -4.359249 -84.21754 29.61748 7.654076 0 0 -22.92241 -1.260945 10.02105 15.21935
1829.295 104.726 2297.568 5.142099 -1.586354 69.6409 1.769506 -25.47878 2.396727 -0 23.54586 -0 -1.938032 -4.735056 -8.371316 -4.49195 16.70653 -11.19657 -0 12.71337 -0 -7.483071 -21.70814 13.68032 -1.865756 0.8039905 1.852269 0.8810618 7.974954 -7.725606 2.116792 22.52167 6.484353 2.241614 -18.44174 8.853993 1.149167 -14.51581 9.25607 91.11381 26.10608 -21.45156 -0 0 10.54019 -17.57188 12.18234 8.018417 6.997764 -21.21861 -4.102443 -83.5915 29.10301 6.445541 0 0 -24.41762 -0.3618748 10.05866 14.3086
1834.678 103.6906 2299.93 4.454517 -1.531861 70.23639 2.434184 -26.65239 2.758691 -0 19.17792 -0 -1.889156 -4.33981 -8.397615 -4.225522 17.9693 -10.92292 -0 15.72768 -0 -7.921679 -21.03915 13.29757 -1.577769 0.5822412 1.821742 1.090551 7.881203 -7.846696 2.294868 22.18959 6.337919 2.290631 -18.76998 8.871551 1.149506 -14.04018 9.184242 91.41583 26.14231 -22.26923 -0 0 9.60888 -17.11062 12.35493 7.532328 7.324188 -21.4885 -3.846378 -83.19795 28.28667 5.581404 0 0 -25.19053 0.6501573 9.939658 13.22648
1840.464 102.8592 2302.483 4.145559 -1.608932 70.65452 3.151297 -26.29826 3.284713 -0 16.49183 -0 -1.790482 -4.002174 -8.397319 -4.009264 18.58385 -10.55655 -0 20.77286 -0 -8.387276 -19.46718 13.04297 -1.237664 0.3316513 1.871601 1.241149 7.905755 -7.829095 2.456041 21.9968 6.153769 2.289692 -18.93971 8.84427 1.199255 -13.59502 9.166187 91.64518 25.99639 -22.78139 -0 0 8.690109 -16.84195 12.54055 7.176759 7.374554 -21.46487 -3.637068 -83.0548 27.31041 5.107812 0 0 -25.24978 1.586346 9.69757 12.13691
